<?xml version="1.0" encoding="utf-8"?>
<!-- Generator: Adobe Illustrator 25.0.1, SVG Export Plug-In . SVG Version: 6.00 Build 0)  -->
<svg version="1.1" id="Layer_1" xmlns="http://www.w3.org/2000/svg" xmlns:xlink="http://www.w3.org/1999/xlink" x="0px" y="0px"
	 viewBox="0 0 158 264" style="enable-background:new 0 0 158 264;" xml:space="preserve">
<style type="text/css">
	.st0{clip-path:url(#SVGID_2_);fill:#C6C6C6;}
	.st1{clip-path:url(#SVGID_2_);}
</style>
<g>
	<defs>
		<rect id="SVGID_1_" width="264" height="264"/>
	</defs>
	<clipPath id="SVGID_2_">
		<use xlink:href="#SVGID_1_"  style="overflow:visible;"/>
	</clipPath>
	<path class="st0" d="M76.5,251.4c-0.6,0-1.2-0.1-1.7-0.4c-22.8-11-41.9-28.2-55.3-49.9c-1.2-1.9-0.6-4.3,1.3-5.5
		c1.9-1.2,4.3-0.6,5.5,1.3c12.6,20.4,30.5,36.6,51.9,46.9c2,1,2.8,3.4,1.9,5.3C79.4,250.6,77.9,251.4,76.5,251.4z"/>
	<path class="st1" d="M127,131.4c-0.3,0-0.5-0.2-0.5-0.5v-7.1c0-0.3,0.2-0.5,0.5-0.5s0.5,0.2,0.5,0.5v7.1
		C127.5,131.2,127.2,131.4,127,131.4z"/>
	<path class="st1" d="M127,145.7c-0.3,0-0.5-0.2-0.5-0.5v-6c0-0.3,0.2-0.5,0.5-0.5s0.5,0.2,0.5,0.5v6
		C127.5,145.5,127.2,145.7,127,145.7z"/>
	<path class="st1" d="M131.4,126.1c-0.3,0-0.5-0.2-0.5-0.5V122c0-0.3,0.2-0.5,0.5-0.5s0.5,0.2,0.5,0.5v3.7
		C131.9,125.9,131.6,126.1,131.4,126.1z"/>
	<path class="st1" d="M131.4,150.6c-0.3,0-0.5-0.2-0.5-0.5v-3.8c0-0.3,0.2-0.5,0.5-0.5s0.5,0.2,0.5,0.5v3.8
		C131.9,150.4,131.6,150.6,131.4,150.6z"/>
	<path class="st1" d="M131.4,141.7c-0.3,0-0.5-0.2-0.5-0.5v-7.9c0-0.3,0.2-0.5,0.5-0.5s0.5,0.2,0.5,0.5v7.9
		C131.9,141.5,131.6,141.7,131.4,141.7z"/>
	<path class="st1" d="M127,162.2c-0.3,0-0.5-0.2-0.5-0.5v-9c0-0.3,0.2-0.5,0.5-0.5s0.5,0.2,0.5,0.5v9
		C127.5,161.9,127.2,162.2,127,162.2z"/>
	<path class="st1" d="M56.6,121.1h-8.9l-0.9,5.9c0.5,0,1.1-0.2,2-0.2c1.8,0,3.6,0.4,5,1.2c1.8,1.1,3.4,3,3.4,5.9
		c0,4.5-3.6,7.9-8.6,7.9c-2.5,0-4.6-0.7-5.7-1.4l0.7-2.3c0.9,0.5,2.9,1.2,5,1.2c3,0,5.5-2,5.5-5c0-3-2-5.2-6.6-5.2
		c-1.2,0-2.3,0.2-3.2,0.2l1.4-11.1h11.1v2.9H56.6z"/>
	<path class="st1" d="M76.6,129.9c0,7.9-2.9,12.3-8,12.3c-4.5,0-7.7-4.3-7.7-12c0-7.9,3.4-12.1,8-12.1
		C73.8,118.1,76.6,122.6,76.6,129.9z M63.9,130.2c0,6.1,1.8,9.5,4.6,9.5c3.2,0,4.8-3.7,4.8-9.6c0-5.7-1.4-9.5-4.6-9.5
		C65.9,120.6,63.9,124,63.9,130.2z"/>
	<path class="st1" d="M89.6,122.7v8.4h8v2.1h-8v8.4h-2.3v-8.4h-8v-2.1h8v-8.4H89.6z"/>
	<path class="st0" d="M40.6,72.9l-5-21.6c-0.5-2.1-2.6-3.4-4.7-3l-24.6,5c-2.2,0.4-3.6,2.6-3.1,4.7c0.4,2.2,2.6,3.6,4.7,3.1l14.7-3
		C7.7,79.9-0.1,105.3-0.1,131.9c0,4.6,0.3,9.4,0.8,14.8c1,9.2,2.9,17.8,5.8,26.6c0.6,1.7,2.1,2.7,3.8,2.7c0.4,0,0.9-0.1,1.3-0.2
		c2.1-0.7,3.2-3,2.5-5.1c-2.8-8.1-4.5-16.3-5.4-24.8c-0.5-5.1-0.8-9.7-0.8-14c0-25.3,7.6-49.5,21.8-70.2l3,13
		c0.4,1.8,2.1,3.1,3.9,3.1c0.3,0,0.6,0,0.9-0.1C39.7,77.2,41.1,75,40.6,72.9z"/>
	<path class="st0" d="M158,3.5c-8.4-1.7-17.2-2.6-26.1-2.6C99,0.9,67.4,13.1,43.1,35.3c-1.6,1.5-1.8,4-0.3,5.7
		c1.5,1.6,4,1.8,5.7,0.3C71.3,20.4,101,8.9,131.9,8.9c8.9,0,17.7,1,26.1,2.8V3.5z"/>
	<g class="st1">
		<path d="M148,109.4c-1.2,1.2-2.4,2.3-3.6,3.4c-1.8,1.7-3.6,3.5-5.4,5.3c-2.5,2.5-4,5.4-4.3,8.3c-0.5,3.8,0.5,7.3,3.2,10.6
			c2.2,2.8,4.8,5.2,7.4,7.5c5.7,5.3,9.9,10.4,12.7,15.9v-2.1c-2.9-5-6.8-9.7-12.1-14.6c-2.5-2.3-5.1-4.7-7.3-7.4
			c-2.5-3.1-3.5-6.3-3-9.9c0.3-2.7,1.7-5.4,4.1-7.8c1.7-1.9,3.6-3.6,5.4-5.3c1.2-1.1,2.4-2.3,3.6-3.4c3.8-3.6,6.9-7.5,9.3-11.7v-2.1
			C155.5,101,152.2,105.4,148,109.4z"/>
		<path d="M151.8,96.1h-46.6c-0.2,0-0.4,0.1-0.4,0.3c-0.1,0.2-0.1,0.4,0,0.5c0.1,0.1,6.7,9.1,13.6,14.2c0.6,0.5,1.6,1.3,2.7,2
			c1,0.8,2.1,1.5,2.6,2c0.1,0.1,0.3,0.3,0.5,0.4c0.9,0.7,2.3,1.8,2.3,5.8c0,0.3,0.2,0.5,0.5,0.5s0.5-0.2,0.5-0.5
			c0-4.6-1.7-5.9-2.7-6.6c-0.2-0.1-0.3-0.2-0.4-0.3c-0.6-0.5-1.6-1.3-2.7-2c-1-0.8-2.1-1.5-2.7-2c-5.6-4.1-11-10.9-12.8-13.2H151
			c-1.1,2.1-4.8,8.6-10.1,13.2c-3,2.7-8.3,6.3-8.4,6.4c-0.2,0.2-0.3,0.5-0.1,0.7c0.2,0.2,0.5,0.3,0.7,0.1c0.1,0,5.4-3.7,8.4-6.4
			c6.6-5.7,10.7-14.2,10.7-14.2c0.1-0.2,0.1-0.3,0-0.5C152.2,96.2,152,96.1,151.8,96.1z"/>
		<path d="M116.7,140.1c-1.2,1.2-2.4,2.3-3.6,3.5c-1.8,1.7-3.6,3.4-5.2,5.1c-9.2,9.3-13.8,21.3-14.2,36.5c0,0.1,0,0.3,0.1,0.4
			c0.1,0.1,0.2,0.2,0.4,0.2H158v-1H94.8c0.5-14.7,5-26.3,13.9-35.3c1.6-1.7,3.4-3.4,5.2-5.1c1.2-1.1,2.4-2.3,3.6-3.5
			c2.7-2.7,5-5.3,6-9c1.1-4,0.5-7.8-1.7-11c-1.1-1.6-2.4-3-3.8-4.4c-0.5-0.6-1.1-1.1-1.6-1.7c-1.2-1.3-2.4-2.5-3.7-3.8
			c-2.9-2.9-5.8-5.8-8.3-9C98.4,94.1,95.4,84.6,95,72h63v-1H94.4c-0.1,0-0.3,0.1-0.4,0.2c-0.1,0.1-0.1,0.2-0.1,0.4
			c0.4,12.9,3.6,23,9.6,31c2.6,3.2,5.5,6.2,8.4,9.1c1.2,1.2,2.5,2.5,3.7,3.7c0.5,0.6,1.1,1.1,1.6,1.7c1.4,1.4,2.6,2.7,3.7,4.3
			c2.1,3,2.6,6.5,1.6,10.2C121.6,135,119.4,137.5,116.7,140.1z"/>
		<path d="M158,197.9H86.9c-3.2,0-3.3-0.2-3.3-3.3v-6.4c0-2.1,0.5-2.6,2.6-2.6h3.3c0.3,0,0.5-0.2,0.5-0.5c0.2-3,0.4-5.7,0.7-8.4
			c1.6-13.4,7.6-24.8,17.7-33.9c2.5-2.2,5-4.6,7.7-7.5c4.3-4.7,4.3-9.3,0.2-13.8c-1.7-1.8-3.4-3.5-5.3-5.3c-0.9-0.9-1.8-1.8-2.8-2.7
			c-7.5-7.1-12.4-14.4-15-22.5c-1.9-5.8-2.9-11.7-3.1-17.6c0-0.7,0-1.3-0.2-2.3c0-0.2-0.3-0.4-0.5-0.4h-4c-1.6,0-2.1-0.5-2.1-2.1v-8
			c0-1.4,0.7-2.1,2.1-2.1H158v-1H85.5c-1.9,0-3.1,1.1-3.1,3.1v8c0,2.1,0.9,3.1,3.1,3.1h3.6c0.1,0.6,0.1,1.1,0.1,1.7
			c0.2,6,1.2,12,3.1,17.9c2.7,8.2,7.7,15.7,15.3,22.9c0.9,0.9,1.8,1.8,2.8,2.7c1.8,1.8,3.6,3.5,5.3,5.3c3.8,4.1,3.7,8.2-0.2,12.5
			c-2.7,2.9-5.2,5.3-7.6,7.5c-10.4,9.2-16.4,20.9-18.1,34.5c-0.3,2.6-0.5,5.1-0.7,8h-2.8c-2.7,0-3.6,0.9-3.6,3.6v6.4
			c0,3.7,0.6,4.3,4.3,4.3H158V197.9z"/>
		<path d="M123.3,156.3l-17.2,6.8c-0.1,0-0.1,0.1-0.2,0.1c-0.4,0.4-8.9,9.6-9.3,20.2c0,0.1,0,0.3,0.1,0.4c0.1,0.1,0.2,0.2,0.4,0.2
			H158v-1H97.7c0.6-9.6,8.1-18.1,8.9-19l17-6.7l6.8-0.7c0.7,0,4.1,0.2,4.5,0.3l18.8,8.7c1.7,1.5,3.1,4.1,4.3,6.9V170
			c-1-2.1-2.3-4-3.6-5.2c0,0-0.1-0.1-0.1-0.1l-18.8-8.8c-0.6-0.3-4.9-0.4-5-0.4l-6.9,0.7C123.4,156.2,123.4,156.2,123.3,156.3z"/>
		<path d="M150.1,141.7c-2.5-2.1-5-4.6-7.7-7.5c-3.3-3.3-3.6-7.2-0.9-11.1c0.9-1.3,1.8-2.4,2.9-3.4c1.4-1.4,2.8-2.7,4.2-4
			c1.4-1.3,2.8-2.7,4.2-4c1.9-1.8,3.6-3.8,5.1-5.8v-1.7c-1.7,2.4-3.6,4.6-5.8,6.8c-1.4,1.4-2.8,2.7-4.2,4c-1.4,1.3-2.8,2.7-4.2,4
			c-1.1,1.1-2,2.2-3,3.5c-3,4.2-2.7,8.7,1,12.3c2.7,2.9,5.2,5.4,7.7,7.5c3.3,2.9,6.1,6.1,8.5,9.5v-1.7
			C155.7,147.2,153.1,144.4,150.1,141.7z"/>
	</g>
	<path class="st0" d="M158,253.3c-8.5,1.8-17.2,2.8-26.1,2.8c-12.6,0-25.1-1.9-37.2-5.6c-2.1-0.6-4.3,0.5-5,2.6
		c-0.6,2.1,0.5,4.3,2.6,5c12.9,4,26.2,6,39.6,6c8.8,0,17.6-0.9,26.1-2.6V253.3z"/>
</g>
</svg>
