<?xml version="1.0" encoding="utf-8"?>
<!-- Generator: Adobe Illustrator 25.0.1, SVG Export Plug-In . SVG Version: 6.00 Build 0)  -->
<svg version="1.1" id="Layer_1" xmlns="http://www.w3.org/2000/svg" xmlns:xlink="http://www.w3.org/1999/xlink" x="0px" y="0px"
	 viewBox="0 0 168 264" style="enable-background:new 0 0 168 264;" xml:space="preserve">
<style type="text/css">
	.st0{clip-path:url(#SVGID_2_);fill:#CCCCCC;}
	.st1{clip-path:url(#SVGID_2_);}
	.st2{fill:#CCCCCC;}
</style>
<g>
	<defs>
		<rect id="SVGID_1_" width="264" height="264"/>
	</defs>
	<clipPath id="SVGID_2_">
		<use xlink:href="#SVGID_1_"  style="overflow:visible;"/>
	</clipPath>
	<path class="st0" d="M76.7,250.9c-0.6,0-1.2-0.1-1.7-0.4c-22.7-11-41.8-28.2-55.1-49.8c-1.2-1.9-0.6-4.3,1.3-5.5
		c1.9-1.2,4.3-0.6,5.5,1.3c12.5,20.3,30.4,36.5,51.8,46.8c2,1,2.8,3.3,1.9,5.3C79.7,250,78.2,250.9,76.7,250.9z"/>
	<path class="st1" d="M67.7,75.3c-1.2,0-2.9-0.3-4.6-1.6c-1.5-1.2-12.1-15.6-11.3-17.2c0.1-0.3,0.4-0.4,0.7-0.3c0.6,0.1,1.2,0.1,2,0
		c1.2-0.1,2.8-0.2,5.5,0.1c4.3,0.4,12,3.3,14.6,7.9c0.8,1.3,0.8,3.4,0.6,4.9l0,0.1c0,0.1-0.4,1.3-2.2,3.4c-1.8,2.1-3.8,2.6-3.9,2.6
		C68.8,75.2,68.3,75.3,67.7,75.3z M52.9,57.2c1.1,2.7,9,14.3,10.9,15.7c2.1,1.6,4.2,1.4,5.1,1.3l0,0c0,0,1.7-0.5,3.3-2.3
		c1.5-1.7,1.9-2.7,2-3c0.2-1.9,0-3.5-0.5-4.3c-2.4-4.2-9.6-7-13.8-7.4c-2.6-0.3-4.2-0.1-5.3-0.1C54,57.2,53.4,57.2,52.9,57.2z"/>
	<path class="st1" d="M71,74c-2.8,0-6.7-1.2-8.9-4.7c-0.5-0.7-1-1.5-1.5-2.2c-2.1-3.2-4.2-6.5-7-9.8c-0.2-0.2-0.2-0.5,0.1-0.7
		c0.2-0.2,0.5-0.2,0.7,0.1c2.8,3.3,5,6.6,7.1,9.9c0.5,0.8,1,1.5,1.5,2.2c2.7,4.1,7.2,4.3,8.2,4.3c0,0,0,0,0,0c0.3,0,0.5,0.2,0.5,0.5
		C71.5,73.8,71.3,74,71,74C71,74,71,74,71,74z M74.5,69.6c-0.3,0-0.5-0.2-0.5-0.5c-0.1-4.9-4.3-6.3-7.7-7.4l-0.4-0.1
		c-0.3-0.1-0.4-0.4-0.3-0.6c0.1-0.3,0.4-0.4,0.6-0.3l0.4,0.1c3.3,1.1,8.3,2.7,8.4,8.3C75,69.3,74.8,69.6,74.5,69.6
		C74.5,69.6,74.5,69.6,74.5,69.6z"/>
	<path class="st1" d="M140.6,139.9c-1.1,0-2.2-0.4-3-1.1c-10.8-9.1-32.6-29.9-54.3-51.9c-4-4-12.5-13-12.6-13.1l0.7-0.7
		c0.1,0.1,8.7,9.1,12.6,13.1c21.7,21.9,43.5,42.7,54.2,51.8c1.5,1.3,3.9,1.1,5.3-0.4c1.2-1.5,1.1-3.6-0.1-5
		c-9-9.2-41.9-38.9-55.7-51.3C80.6,75.2,74.3,70,74.2,69.9l0.6-0.8c0.1,0.1,6.3,5.2,13.4,11.5C102.1,93,135,122.7,144,132
		c1.6,1.7,1.7,4.4,0.2,6.3C143.3,139.3,141.9,139.9,140.6,139.9z"/>
	<rect x="82.3" y="83.3" transform="matrix(0.6181 -0.7861 0.7861 0.6181 -33.0995 99.4501)" class="st1" width="7.1" height="1"/>
	<path class="st1" d="M120.1,78.5L120.1,78.5c-2-0.4-3.8-1.4-5-2.7c-4.4-4.6-10.3-19.6-3.8-33.2c0.4-0.9,2.1-3.2,3.1-3.1
		c0.1,0,0.6,0.1,0.7,0.7c0.4,3.8,3.9,7.8,7.6,12c4.7,5.4,9.5,10.9,8.7,16.7c-0.2,1.5-0.6,2.9-1.1,4.1c-0.1,0.1-1.4,2.3-4.5,3.7
		C122.6,78.3,120.3,78.5,120.1,78.5L120.1,78.5z M114.1,40.7c-0.5,0.4-1.6,1.6-1.9,2.4l0,0c-6.3,13.2-0.7,27.6,3.6,32.1
		c1.1,1.1,2.6,2,4.4,2.4c0.4,0,2.5-0.3,5.1-1.6c2.9-1.3,4.1-3.3,4.1-3.3c0.5-1.1,0.8-2.3,1-3.7c0.7-5.3-3.9-10.7-8.5-15.9
		C118.1,48.7,114.6,44.7,114.1,40.7z"/>
	<path class="st1" d="M120.5,78.7c-0.1,0-0.1,0-0.2,0c-5.9-2.8-8.2-10.7-8.4-16.6c0-0.3,0.2-0.5,0.5-0.5c0.3,0,0.5,0.2,0.5,0.5
		c0,1.2,0.6,12.3,7.9,15.7c0.2,0.1,0.4,0.4,0.2,0.7C120.9,78.6,120.7,78.7,120.5,78.7z M128.6,74.4c0,0-0.1,0-0.1,0
		c-0.3-0.1-0.4-0.4-0.3-0.6c0.5-1.7,1.4-6.3-1.8-11.5c-2.3-3.7-5-6.5-6.9-8.5c-1.2-1.3-2.1-2.2-2.5-2.9c-0.1-0.2-0.1-0.5,0.2-0.7
		c0.2-0.1,0.5-0.1,0.7,0.2c0.3,0.6,1.2,1.5,2.3,2.7c2,2.1,4.7,4.9,7.1,8.7c3.5,5.5,2.5,10.4,1.9,12.3
		C129,74.3,128.8,74.4,128.6,74.4z M111.3,53.4c-0.2,0-0.5-0.2-0.5-0.4c0-0.3-0.8-7.4,3.1-13.2c0.2-0.2,0.5-0.3,0.7-0.1
		c0.2,0.2,0.3,0.5,0.1,0.7c-3.7,5.5-3,12.4-3,12.5C111.8,53.1,111.6,53.3,111.3,53.4C111.3,53.4,111.3,53.4,111.3,53.4z"/>
	<rect x="128.7" y="92.4" transform="matrix(0.8855 -0.4647 0.4647 0.8855 -27.8759 72.7788)" class="st1" width="9.9" height="1"/>
	<path class="st1" d="M68.8,133.1c-1.8,0-3.6-0.5-5.1-1.5c-2.1-1.4-3.6-3.5-4.1-6c-1.1-5.1,2.2-10.2,7.3-11.3
		c5.1-1.1,10.2,2.2,11.3,7.3c0.5,2.5,0.1,5-1.3,7.2c-1.4,2.1-3.5,3.6-6,4.1h0C70.2,133,69.5,133.1,68.8,133.1z M68.9,115.1
		c-0.6,0-1.2,0.1-1.8,0.2c-4.6,1-7.5,5.5-6.5,10.1c0.5,2.2,1.8,4.1,3.7,5.3c1.9,1.2,4.2,1.6,6.4,1.2h0c2.2-0.5,4.1-1.8,5.3-3.7
		c1.2-1.9,1.6-4.2,1.2-6.4C76.3,117.8,72.8,115.1,68.9,115.1z"/>
	<path class="st1" d="M75.2,165.8c-2.2,0-4.3-0.6-6.2-1.8c-2.6-1.7-4.3-4.2-5-7.2c-0.6-3-0.1-6,1.6-8.6c1.7-2.6,4.2-4.3,7.2-5
		c3-0.6,6-0.1,8.6,1.6c2.6,1.7,4.3,4.2,5,7.2c1.3,6.1-2.6,12.2-8.7,13.6C76.8,165.7,76,165.8,75.2,165.8z M75.2,143.9
		c-0.7,0-1.5,0.1-2.2,0.2c-2.7,0.6-5,2.2-6.6,4.5c-1.5,2.3-2,5.1-1.4,7.8s2.2,5,4.5,6.6c2.3,1.5,5.1,2,7.8,1.4l0,0
		c5.6-1.2,9.2-6.8,8-12.4c-0.6-2.7-2.2-5-4.5-6.6C79.2,144.5,77.2,143.9,75.2,143.9z"/>
	<path class="st1" d="M97.6,189.9c-5.1,0-9.7-3.6-10.8-8.7c-0.6-2.9-0.1-5.9,1.5-8.3c1.6-2.5,4.1-4.2,7-4.8c6-1.3,11.9,2.5,13.2,8.5
		c1.3,6-2.5,11.9-8.5,13.2l0,0C99.1,189.8,98.3,189.9,97.6,189.9z M97.6,168.7c-0.7,0-1.4,0.1-2.1,0.2c-2.6,0.6-4.9,2.1-6.3,4.4
		c-1.5,2.3-1.9,5-1.4,7.6c1.2,5.4,6.5,8.9,12,7.7c5.4-1.2,8.9-6.6,7.7-12C106.4,172,102.2,168.7,97.6,168.7z"/>
	<path class="st1" d="M128.7,194c-5.1,0-9.7-3.6-10.8-8.7c-0.6-2.9-0.1-5.9,1.5-8.3c1.6-2.5,4.1-4.2,7-4.8c2.9-0.6,5.9-0.1,8.3,1.5
		c2.5,1.6,4.2,4.1,4.8,7c0.6,2.9,0.1,5.9-1.5,8.3c-1.6,2.5-4.1,4.2-7,4.8l0,0C130.2,193.9,129.4,194,128.7,194z M128.7,172.8
		c-0.7,0-1.4,0.1-2.2,0.2c-2.6,0.6-4.9,2.1-6.3,4.4c-1.5,2.3-1.9,5-1.4,7.6c1.2,5.4,6.6,8.9,12,7.7l0,0c2.6-0.6,4.9-2.1,6.3-4.4
		s1.9-5,1.4-7.6c-0.6-2.6-2.1-4.9-4.4-6.3C132.5,173.4,130.6,172.8,128.7,172.8z"/>
	<path class="st1" d="M123.9,215.8c-17.2,0-33.6-5.7-47.4-16.5l0.6-0.8c13.7,10.6,29.9,16.3,46.8,16.3c15.5,0,30.4-4.7,43.3-13.7
		l0.6,0.8C154.8,211,139.6,215.8,123.9,215.8z M70.5,194.2c-17.3-16.3-27.2-39.8-27.2-64.5c0-20.8,7-40.9,19.8-56.5l0.8,0.6
		c-12.6,15.5-19.6,35.3-19.6,55.9c0,24.4,9.8,47.6,26.9,63.8L70.5,194.2z M77.1,60.9l-0.6-0.8c6.4-5,12.2-8.7,21.2-11.7l0.3,0.9
		C89.1,52.4,83.4,56,77.1,60.9z M167.3,58.4c-12.9-9-27.9-13.7-43.3-13.7v-1c15.7,0,30.8,4.8,43.9,13.9L167.3,58.4z"/>
	<g class="st1">
		<path class="st2" d="M168,250.2c-11.4,3.4-23.4,5.3-35.9,5.3c-12.5,0-25-1.9-37.1-5.6c-2.1-0.6-4.3,0.5-5,2.6
			c-0.6,2.1,0.5,4.3,2.6,5c12.9,4,26.1,6,39.5,6c12.4,0,24.5-1.7,35.9-5V250.2z"/>
		<path class="st2" d="M132.1,7.9c12.5,0,24.5,1.9,35.9,5.3V4.9c-11.4-3.2-23.5-5-35.9-5C59.5-0.1,0.4,59,0.4,131.6
			c0,4.6,0.3,9.4,0.8,14.8c1,9.1,2.9,17.8,5.8,26.5c0.7,2.1,3,3.2,5.1,2.5c2.1-0.7,3.2-3,2.5-5.1c-2.8-8.1-4.5-16.2-5.4-24.8
			c-0.5-5.1-0.8-9.7-0.8-14C8.3,63.4,63.9,7.9,132.1,7.9z"/>
	</g>
	<g class="st1">
		<path d="M168,132.8v-1c-1.7,0-3.3,0.3-4.9,0.8l0.3,0.9C164.9,133,166.4,132.8,168,132.8z"/>
		<path d="M168,169.7c-7.8,0-14.6-6.8-15.8-15.7l-1,0.1c1.2,9.4,8.5,16.5,16.8,16.5V169.7z"/>
	</g>
	<g class="st1">
		<path d="M149.8,115.6c7.8,15.6,13.7,27.4,18.2,37.5v-2.4c-4.4-9.6-10-20.9-17.3-35.5c-2.2-4.4-4.6-9.2-7.1-14.3
			c-3.7-7.6-14.2-26.3-14.3-26.5l-0.9,0.5c0.1,0.2,10.5,18.9,14.3,26.4C145.2,106.4,147.6,111.2,149.8,115.6z"/>
		<path d="M168,162.5c-1.8,0.6-3.8,0-4.6-1.6c-6.8-12.2-24.5-46.4-28.1-54.1c-4-8.7-13-28.5-13-28.5l-0.9,0.4c0,0,9,19.8,13,28.5
			c3.6,7.7,21.4,42,28.2,54.2c0.8,1.5,2.4,2.3,4.1,2.3c0.5,0,0.9-0.1,1.4-0.2V162.5z"/>
	</g>
</g>
</svg>
