<?xml version="1.0" encoding="utf-8"?>
<!-- Generator: Adobe Illustrator 25.0.1, SVG Export Plug-In . SVG Version: 6.00 Build 0)  -->
<svg version="1.1" id="Layer_1" xmlns="http://www.w3.org/2000/svg" xmlns:xlink="http://www.w3.org/1999/xlink" x="0px" y="0px"
	 viewBox="0 0 187 269" style="enable-background:new 0 0 187 269;" xml:space="preserve">
<style type="text/css">
	.st0{fill:#C4C4C4;}
</style>
<path class="st0" d="M183.5,134.8c2,0.2,3.5,1.9,3.3,3.9c-3.3,43.5-29.2,82.8-69.5,102.2c0,0-4.4,2.5-6.4-0.6c-2.1-3.1,1.3-5,1.3-5
	c39.7-18.2,64.3-56.3,67.4-97.2C179.8,136.2,181.5,134.7,183.5,134.8z"/>
<path class="st0" d="M90.2,8.6c53,11.3,93.1,57.1,96.7,112.7c0.1,2-1.4,3.7-3.3,3.8c-2,0.1-3.7-1.4-3.8-3.4
	c-3.4-52.3-41-95.5-91-106.1c0,0-4-0.8-2.9-4.4C86.8,7.6,90.2,8.6,90.2,8.6z"/>
<path d="M121.6,85.8l-0.4,0.3l0.1-0.5c-10.9-1.2-25.9,2.5-38.2,9.4c-9.7,5.4-17.6,12.7-22.9,21.1c-0.6,1-1.2,2-1.8,3
	c-0.4,0.8-0.9,1.7-1.3,2.5c-2.6-3.9-8.1-8.2-10.5-9.9C33,102,22.2,98.3,13.4,100.3l0.1,0.5l-0.3-0.4c-6.2,5.4-9.3,21.3-9.1,33.4
	c0.1,8.3,2.9,14.9,7.3,22.7c0.5,0.8,0.9,1.6,1.5,2.4c10.9,16.6,35.1,24.8,45.6,25.5l0-0.2l0.4-0.2l-0.1,0.5c1.6,0.2,3.5,0.3,5.7,0.3
	c13.8,0,36.7-5.3,52.3-26.1c1-1.4,2-2.8,3-4.3c5.3-8.4,8.6-17.5,9.8-27.1C131.8,110,126.6,94.1,121.6,85.8z M120.3,86.5l-25.6,40.3
	L83.9,95.6C95.6,89.1,109.7,85.6,120.3,86.5z M60.9,116.6c5.1-8.1,12.8-15.2,22.1-20.5L94,127.8l-17.2,27.1l-17.5-35.7
	C59.8,118.4,60.3,117.4,60.9,116.6z M56.5,122.6c-6.7,14.9-6.7,32.2-4,45.2l-5.9-8.4l-12.2-21.5l12-25.1
	C48.7,114.5,54.4,118.9,56.5,122.6z M45.6,112.2l-11.7,24.6l-19.6-35.7C22.6,99.6,32.9,103.2,45.6,112.2z M13.4,101.6L33,137.3
	l-27.8-3.9C5,121.7,8,106.9,13.4,101.6z M12.3,156.1c-4.2-7.6-6.9-13.9-7.2-21.7l28.4,4l11.8,20.7l-31.8-0.9
	C13.1,157.5,12.7,156.8,12.3,156.1z M14.3,159.2l31.7,0.9l7,10.1l0,0c1.3,5.5,3,10.1,4.9,13.2C47.4,182.5,24.9,174.7,14.3,159.2z
	 M58.7,120.4l17.4,35.6l-17.3,27.2C52.6,172.7,47.2,142.7,58.7,120.4z M59.7,183.6L77,156.5l38.4,2.4C98.1,181.4,72,185,59.7,183.6z
	 M118.9,153.9c-0.9,1.4-1.8,2.7-2.7,4l-38.5-2.5l17.3-27.2l33.6-0.5C127.2,137.1,124,145.9,118.9,153.9z M128.6,126.8l-33.1,0.5
	L121.1,87C125.9,95.3,130.6,110.3,128.6,126.8z"/>
<path class="st0" d="M54.5,242.5c-20.8-3.4-39.3-12.2-54.5-24.8v9.2c14.8,11,32.1,18.8,51.1,22.3c0,0,4.9,1.3,6-2.2
	C58.3,243.5,54.5,242.5,54.5,242.5z"/>
<path class="st0" d="M46.8,8.5c-0.6-1.2-1.7-2.1-3-2.3L8.3,0.6C6.2,0.2,4.1,1.7,3.8,3.9C3.4,6,4.9,8.1,7.1,8.4l23.2,3.7
	c-6.2,2.5-13.3,5.7-13.3,5.7C10.9,21,5.3,24.5,0,28.5v9.2c6.2-5.1,12.9-9.5,20.2-13.3c0,0,7.8-3.8,13.5-6.2L20.7,39.7
	c-1.1,1.9-0.5,4.4,1.4,5.5c0.6,0.4,1.4,0.6,2.1,0.6c1.4,0,2.7-0.7,3.4-1.9l19-31.5C47.2,11.1,47.3,9.7,46.8,8.5z"/>
</svg>
