<?xml version="1.0" encoding="utf-8"?>
<!-- Generator: Adobe Illustrator 25.0.1, SVG Export Plug-In . SVG Version: 6.00 Build 0)  -->
<svg version="1.1" id="Layer_1" xmlns="http://www.w3.org/2000/svg" xmlns:xlink="http://www.w3.org/1999/xlink" x="0px" y="0px"
	 viewBox="0 0 167 264" style="enable-background:new 0 0 167 264;" xml:space="preserve">
<style type="text/css">
	.st0{clip-path:url(#SVGID_2_);}
	.st1{clip-path:url(#SVGID_2_);fill:#C4C4C4;}
	.st2{fill:#C4C4C4;}
</style>
<g>
	<defs>
		<rect id="SVGID_1_" x="-97" width="264" height="264"/>
	</defs>
	<clipPath id="SVGID_2_">
		<use xlink:href="#SVGID_1_"  style="overflow:visible;"/>
	</clipPath>
	<path class="st0" d="M56.1,168.3c-3,0-5.9-1.2-8.2-3.3c-2.4-2.2-3.7-5.3-3.8-8.6c-0.1-3,1.1-6,3.3-8.3c2.3-2.4,5.4-3.8,8.7-3.9
		c3.2-0.1,6.2,1.1,8.5,3.4c2.3,2.3,3.6,5.3,3.7,8.5c0.1,3-1.1,6-3.3,8.3c-2.2,2.4-5.3,3.8-8.5,3.8l0,0
		C56.3,168.3,56.2,168.3,56.1,168.3z M56.4,145.3c-0.1,0-0.2,0-0.3,0c-3,0.1-5.9,1.3-8,3.5c-2,2.1-3.1,4.8-3,7.5
		c0.1,3.1,1.3,5.9,3.5,7.9c2.1,2,4.9,3.1,7.8,3l0,0c2.9-0.1,5.7-1.4,7.8-3.5c2-2.1,3.1-4.9,3-7.6c-0.1-3-1.3-5.8-3.4-7.8
		C61.8,146.4,59.1,145.3,56.4,145.3z"/>
	<path class="st0" d="M23.8,116.1c-4.7,0-8.3-3.7-8.3-8.3c-0.1-2.2,0.7-4.2,2.1-5.7c1.5-1.6,3.7-2.5,6.2-2.5c4.8,0,8.2,3.4,8.2,8.2
		C32,112.6,28.5,116.1,23.8,116.1z M23.8,100.6c-2.2,0-4.2,0.8-5.5,2.2c-1.3,1.3-1.9,3.1-1.8,5c0,4.1,3.2,7.4,7.3,7.4
		c4.2,0,7.2-3,7.2-7.3C31,103.5,28.1,100.6,23.8,100.6z"/>
	<path class="st1" d="M102,245.1c-1.3,0-2.7-0.7-3.4-1.9c-1.2-1.9-0.6-4.3,1.3-5.5c20.4-12.6,36.6-30.5,46.9-51.9
		c1-2,3.4-2.8,5.3-1.9c2,1,2.8,3.4,1.9,5.3c-11,22.8-28.2,41.9-49.9,55.3C103.4,244.9,102.7,245.1,102,245.1z"/>
	<g class="st0">
		<path class="st2" d="M73.8,249.9c-7.8,2.6-16.1,4.4-24.7,5.5c-5.1,0.5-9.7,0.8-14,0.8c-12.2,0-24-1.8-35.1-5.1v8.3
			c11.2,3.1,22.9,4.7,35.1,4.7c4.6,0,9.4-0.3,14.9-0.8c9.2-1.1,18-3.1,26.3-5.8c2.1-0.7,3.2-2.9,2.6-5
			C78.1,250.3,75.9,249.2,73.8,249.9z"/>
		<path class="st2" d="M34.9-0.1C22.8-0.1,11.1,1.6,0,4.6V13c11.1-3.3,22.8-5,34.9-5c32,0,61.2,12.2,83.2,32.1L0,162.8v11.5
			L123.9,45.6c21.7,22.3,35.2,52.8,35.2,86.4c0,12.6-1.9,25.1-5.6,37.2c-0.6,2.1,0.5,4.4,2.6,5c2.1,0.6,4.4-0.5,5-2.6
			c4-12.9,6-26.2,6-39.6C167.1,59.1,107.8-0.1,34.9-0.1z"/>
	</g>
	<g class="st0">
		<path d="M19.1,168c0.3,0.1,0.7,0.1,1,0.1c1.4,0,2.8-0.6,4-1.8c3.9-5,0.3-7.9-1.3-9.1c-0.2-0.2-0.5-0.4-0.6-0.5
			c0,0.1,0.1,0.3-0.1,0.4l-0.7-0.7c-0.1,0.1-0.2,0.3-0.2,0.5c0,0.4,0.4,0.6,0.9,1.1c1.6,1.3,4.4,3.4,1.1,7.6
			c-1.2,1.2-2.7,1.7-4.1,1.4c-1.3-0.3-2.3-1.3-2.9-2.9l-0.9,0.4C16.2,166.4,17.5,167.7,19.1,168z"/>
		<path d="M93.5,123.9c2.4-0.8,4.8-1.5,7.1-2.3c2.3-0.7,4.8-1.5,7.1-2.3c7.5-2.3,13.8-3,20-2.2c1.3,0.2,2.6,0.1,3.6-0.2
			c3.4-0.8,6-3.6,6.5-7c0.5-3.6-1.2-7-4.3-8.8c-3.1-1.8-6.8-1.4-9.6,1c-2.8,2.1-5.6,4.4-8.7,6.1c-5.5,2.9-11.6,4.6-17.5,6.3
			c-2.4,0.7-4.9,1.4-7.3,2.2c-1.9,0.5-3.7-0.2-4.4-1.9c-0.2-0.4-0.3-0.7-0.5-1c-0.7-1.3-1-1.9,0.6-6.7c1.5-4.5,6.4-8.4,11.9-12.8
			c1.6-1.3,3.3-2.6,5-4c0.3-0.2,1.1-0.6,2-1.1c3.6-1.8,10.3-5.1,11-9.8c0.3-2.2-0.7-4.4-2.9-6.5c-1.6-1.5-3-2.1-4.4-2
			c-2.7,0.3-5,3.4-7.8,7.4c-1.9,2.7-4.1,5.8-6.8,8.6C88,93.2,83,94.8,80,95.8c-1.4,0.4-2.3,0.7-2.8,1.3l0.7,0.7
			c0.3-0.4,1.2-0.7,2.4-1c3.1-1,8.3-2.7,14.6-9.2c2.8-2.9,5-6,6.9-8.7c2.7-3.8,4.8-6.7,7-7c1.1-0.1,2.3,0.5,3.6,1.7
			c2,1.9,2.9,3.8,2.6,5.6c-0.6,4.2-7,7.3-10.4,9c-1.1,0.5-1.8,0.9-2.2,1.2c-1.7,1.4-3.4,2.8-5,4c-5.7,4.5-10.6,8.5-12.3,13.3
			c-1.7,5-1.4,5.9-0.6,7.4c0.1,0.3,0.3,0.6,0.4,0.9c0.9,2.1,3.2,3.2,5.6,2.5c2.4-0.8,4.9-1.5,7.3-2.2c5.9-1.7,12.1-3.4,17.7-6.3
			c3.2-1.7,6.1-4,8.8-6.2c2.6-2.1,5.8-2.5,8.5-0.9c2.8,1.6,4.3,4.6,3.8,7.8c-0.5,3-2.7,5.4-5.8,6.2c-0.9,0.3-2.1,0.3-3.2,0.1
			c-6.3-0.8-12.8-0.1-20.4,2.2c-2.3,0.8-4.8,1.5-7.1,2.3c-2.4,0.7-4.8,1.5-7.1,2.3c-3.9,1.3-6,9.9-6,12.7c0,6.1,6.2,14.4,12.1,16
			c8.8,2.5,17.1,2.9,25.1,1.3c4.5-0.9,8.5,1.2,10.1,5.3c1.6,4.2,0.5,8.1-3,10.7c-3.6,2.7-8.1,2.4-11.6-0.8
			c-6-5.5-13.7-9.1-23.3-11.2c-5.1-1.1-10.9,1.7-13.4,6.5c-1.4,2.8-0.9,5.4,1.4,7.5c2.8,2.7,6.4,4.7,11.2,6.4l6.1,1.9
			c3.6,1.1,5,3.2,4.8,7.2c-0.1,3-2.3,5.5-5.6,6.4c-3,0.9-6.3-0.5-7.9-3.2c-3.1-5.2-6.5-9.3-10.5-12.7c-3.8-3.2-6.7-3.1-10.4,0.2
			l-1.1,1.1c-2.8,2.6-3.2,5-1.4,8.1c0.9,1.7,2.1,3.4,3.1,5.1c0.6,0.9,1.2,1.8,1.7,2.6c3.9,6.3,9.7,10.7,15.8,15
			c2.3,1.7,3.6,4.2,3.7,6.9c0.1,2.6-1,5-3,6.7c-2.7,2.2-5.8,2.8-9.1,1.6c-3.2-1-5.2-3.5-5.5-6.8c-0.7-7.2-3.4-14.5-8.2-22.2
			l-3.8-5.6c-1.8-2.6-5-3.4-8.2-2c-1.3,0.6-2.6,1.1-4.1,1.7c-0.6,0.2-1.2,0.4-1.8,0.7c-4.3,1.4-5.7,2.7-5.7,7.5
			c0,4.5,0.4,9.7,3.2,14.2c1,1.6,2.3,3,3.6,4.3c0.4,0.5,0.9,0.9,1.3,1.4c4,4.1,4.5,9.4,1.5,14.3c-3,4.9-9.5,6.6-14.9,3.9
			c-5.1-2.6-7.5-8.9-5.3-14.1c0.6-1.2,1.2-2.4,1.9-3.6c0.2-0.4,0.5-0.9,0.7-1.3c2.3-4,3.2-8.4,2.4-12.7c-0.2-0.8-0.3-1.6-0.4-2.3
			c-0.3-1.5-0.6-3.2-1-4.8c-0.7-2.4-2.7-3.9-5.7-4.3c-2.1-0.3-4.2-0.3-6.3-0.3c-3.4,0-5.8,1.8-7.1,5.4c-1.1,3.5-1.3,6.9-0.5,10.4
			c0.7,3.1-0.3,5.6-2.9,7.3c-2.2,1.3-5.1,1.1-7.3-0.4c-2.2-1.6-3.2-4.4-2.3-6.8c0.4-1.4,1.6-2.8,2.7-4L9,204c2.4-2.8,4-5.4,4.8-8
			c1-3.6,0.2-6.3-2.5-8.4c-0.2-0.1-0.4-0.3-0.6-0.5c-1.3-1.1-3-2.7-7.7-1l-0.2,0.1l-0.1,0.1C2,187.5,1,188.6,0,189.8v1.5
			c1.3-1.4,2.5-2.8,3.4-4.2c4-1.4,5.4-0.2,6.6,0.9c0.2,0.2,0.4,0.4,0.6,0.5c2.4,1.8,3.1,4.1,2.2,7.3c-0.8,2.6-2.2,4.9-4.6,7.7
			l-0.1,0.1c-1.1,1.3-2.4,2.7-2.8,4.3c-1,2.8,0.1,6.1,2.7,7.9c2.5,1.8,5.8,2,8.4,0.5c3-1.9,4.1-4.9,3.3-8.4
			c-0.8-3.3-0.6-6.6,0.5-9.9c1.1-3.1,3.1-4.7,6.1-4.7c2.1,0,4.2,0,6.2,0.3c1.8,0.2,4.1,1.1,4.9,3.5c0.4,1.5,0.7,3.1,1,4.7
			c0.1,0.8,0.3,1.6,0.4,2.4c0.7,4.1-0.1,8.2-2.3,12c-0.2,0.5-0.5,0.9-0.7,1.3c-0.7,1.2-1.4,2.4-1.9,3.7c-2.4,5.7,0.1,12.6,5.7,15.4
			c1.9,1,3.9,1.4,5.8,1.4c4.1,0,8.1-2,10.3-5.7c3.2-5.2,2.6-11.1-1.6-15.5c-0.4-0.5-0.9-0.9-1.3-1.4c-1.3-1.4-2.6-2.7-3.5-4.2
			c-2.7-4.3-3.1-9.3-3.1-13.7c0-4.3,1-5.2,5-6.6c0.6-0.2,1.2-0.5,1.8-0.7c1.4-0.5,2.8-1,4.2-1.7c2.7-1.2,5.4-0.5,6.9,1.7l3.8,5.6
			c4.7,7.5,7.4,14.7,8.1,21.7c0.3,3.7,2.6,6.5,6.1,7.6c3.6,1.3,7.1,0.7,10.1-1.8c2.2-1.9,3.4-4.6,3.3-7.5c-0.1-3-1.6-5.8-4.1-7.7
			c-6-4.3-11.7-8.6-15.5-14.7c-0.6-0.9-1.1-1.8-1.7-2.7c-1.1-1.6-2.2-3.3-3.1-5c-1.6-2.7-1.2-4.6,1.2-6.9l1.1-1.1
			c3.2-2.9,5.6-3,9.1-0.1c3.8,3.3,7.2,7.3,10.2,12.4c1.8,3.2,5.5,4.7,9,3.7c3.7-1,6.2-3.9,6.3-7.4c0.2-4.4-1.5-6.9-5.5-8.2l-6.1-1.9
			c-4.6-1.6-8-3.6-10.8-6.2c-2-1.8-2.3-3.9-1.1-6.3c2.3-4.5,7.6-7,12.3-6c9.4,2.1,16.9,5.7,22.8,11c3.8,3.4,8.9,3.8,12.9,0.8
			c3.8-2.8,5-7.3,3.3-11.9c-1.8-4.6-6.2-6.9-11.2-5.9c-7.9,1.6-16,1.2-24.7-1.2c-5.4-1.5-11.4-9.4-11.4-15
			C88.2,132.7,90.5,124.9,93.5,123.9z"/>
	</g>
	<g class="st0">
		<path d="M11.1,77.4C10,73.1,7.6,69.6,4.1,67c-0.7-0.6-1.5-1.1-2.2-1.7c-0.6-0.5-1.3-0.9-1.8-1.4v1.3c0.4,0.3,0.8,0.6,1.3,0.9
			c0.7,0.5,1.5,1.1,2.2,1.6c3.4,2.5,5.6,5.8,6.7,9.9C11,82,9.3,86.1,5.7,87.9c-1.9,1-3.8,1.4-5.7,1.2v1c2,0.2,4.1-0.2,6.2-1.3
			C10.1,86.8,12.1,82.3,11.1,77.4z"/>
		<path d="M97.4,47.1c-1-3.3-3.4-5.7-7.3-7.3c-3.5-1.5-7.3-1.1-10.7,1.1c-3.1,2-5.6,5.4-5.7,7.9c-0.8,3.5-0.1,6.1,0.4,8.4
			c0.7,3,1.3,5.4-1.3,9.1c-4.1,6.1-10.4,13.6-11.7,14.8l-0.1,0.1c-1.6,1.4-5.7,5.1-11.4,1.1l-0.1-0.1c-2.3-0.8-3.6-2.9-3.3-5.6
			c0.6-4.5,1.9-8.7,3.9-12.4c1.1-2,0.8-4.1-0.8-6.3c-1.3-2-3.4-2.9-6-2.6c-1.7,0.3-3.1,1.2-4,2.5c-1,1.5-1.4,3.6-0.9,5.8
			c0.8,4.4,1.5,8.6-0.1,13c-0.8,1.9-2,2.9-3.7,3.1c-2.6,0.3-5.1,0.5-7.8,0.6C22.1,81,19,78,17.7,75c-2.1-4.6-2.1-9.4-0.2-14.2
			c1.7-4,1.4-7.8-0.8-11.3c-2.6-4.1-6.5-5.9-11.3-5.2c-2.1,0.3-3.9,1-5.4,2.1v1.2c1.5-1.2,3.3-2,5.5-2.3c4.4-0.6,7.9,1.1,10.3,4.8
			c2.1,3.2,2.3,6.6,0.7,10.3c-2.1,5-2.1,10.1,0.2,15c1.5,3.3,4.9,6.6,10.2,6.1c2.8-0.2,5.2-0.3,7.9-0.6c2.1-0.3,3.5-1.5,4.5-3.8
			c1.8-4.7,1-9.2,0.2-13.6c-0.4-2-0.1-3.7,0.8-5c0.7-1.1,1.9-1.8,3.4-2.1c2.2-0.3,3.9,0.4,5,2.1c1.4,1.9,1.6,3.7,0.7,5.3
			c-2,3.8-3.3,8.1-4,12.7c-0.3,3.1,1.1,5.6,3.9,6.6c6.3,4.3,11,0.1,12.5-1.3l0.1-0.1c1.5-1.4,7.8-9.1,11.8-15c2.9-4.1,2.2-7,1.5-10
			c-0.6-2.3-1.1-4.6-0.4-8c0.1-1.9,2-5.1,5.2-7.2c2.2-1.4,5.7-2.7,9.8-1c3.5,1.5,5.8,3.7,6.7,6.7c1.1,3.6-0.1,7.2-1.1,8.8l-0.1,0.2
			c-0.8,4.7-10.1,13.8-11.4,15.1l0.7,0.7c1.7-1.5,10.8-10.6,11.7-15.5C97.5,54.6,98.5,50.7,97.4,47.1z"/>
		<path d="M21.7,135.6c-0.1-0.1-0.3-0.3-0.4-0.6c-0.5-0.7-0.9-1.2-1.3-1.3c-2.4-3.1-5.2-4.5-8.9-4.4c-2.5,0.2-4.6,1.2-6.6,3.1
			c-4,4.1-3.1,10.1,2.2,15.3l0.7-0.7c-4.9-4.8-5.8-10.1-2.2-13.9c1.8-1.8,3.7-2.7,5.9-2.8c3.4-0.1,6,1.2,8.2,4.2l0.3,0.5l0.2-0.2
			c0.2,0.2,0.4,0.5,0.6,0.8c0.5,0.6,0.6,0.9,1,0.9l0.4-0.2l-0.7-0.7C21.3,135.4,21.6,135.5,21.7,135.6z"/>
	</g>
</g>
</svg>
